<svg xmlns="http://www.w3.org/2000/svg" width="32" height="32" viewBox="0 0 32 32"><path d="m 16,6.78125 c 4.007579,0 7.25,3.224669 7.25,7.230469 0,1.8108 -0.673635,3.454362 -1.773438,4.726562 -0.287109,0.369141 0,0 -0.287109,0.369141 l -3.667969,4.154297 c -0.292968,0.373047 0,0 -0.292968,0.373047 l -1.207032,1.355468 -1.189453,-1.353515 -0.289057,-0.375 -3.560547,-4.023438 c -0.0094,-0.01017 -0.01913,-0.01994 -0.0293,-0.0293 -0.01768,-0.017 -0.04159,-0.04317 -0.07422,-0.07617 C 9.5669739,17.820413 8.75,16.013919 8.75,14.011719 8.75,10.005819 11.992413,6.78125 16,6.78125 z m 0.002,3.708984 c -1.941544,0 -3.525391,1.583791 -3.525391,3.525391 0,1.9415 1.583847,3.527344 3.525391,3.527344 1.941544,0 3.527346,-1.585844 3.527344,-3.527344 2e-6,-1.9416 -1.5858,-3.525391 -3.527344,-3.525391 z m 0,1 c 1.401103,0 2.527345,1.124191 2.527344,2.525391 1e-6,1.4011 -1.126241,2.527344 -2.527344,2.527344 -1.401103,0 -2.525391,-1.126244 -2.525391,-2.527344 0,-1.4012 1.124288,-2.525391 2.525391,-2.525391 z" color="#000" font-family="sans-serif" font-weight="400" overflow="visible" style="text-indent:0;text-align:start;line-height:normal;text-transform:none;block-progression:tb"/></svg>